<svg width="43" height="50" viewBox="0 0 43 50" fill="none" xmlns="http://www.w3.org/2000/svg">
<path fill-rule="evenodd" clip-rule="evenodd" d="M21.1213 10.0805C18.9098 10.0805 16.748 10.7363 14.9093 11.9649C13.0705 13.1935 11.6373 14.9398 10.7911 16.983C9.94476 19.0261 9.72333 21.2743 10.1548 23.4433C10.5862 25.6122 11.6511 27.6046 13.2149 29.1683C14.7786 30.732 16.7709 31.797 18.9399 32.2284C21.1089 32.6598 23.3571 32.4384 25.4002 31.5921C27.4434 30.7458 29.1896 29.3127 30.4183 27.4739C31.6469 25.6352 32.3027 23.4734 32.3027 21.2619C32.2961 18.2984 31.116 15.4582 29.0205 13.3627C26.925 11.2672 24.0848 10.0871 21.1213 10.0805Z" fill="white"/>
<path fill-rule="evenodd" clip-rule="evenodd" d="M42.1423 19.1001C41.7934 15.4697 40.5104 11.9915 38.4181 9.00416C36.3258 6.01683 33.4956 3.62222 30.203 2.0535C26.9105 0.484787 23.2678 -0.20457 19.6297 0.0525597C15.9916 0.309689 12.4821 1.50454 9.44297 3.52077C6.83198 5.26666 4.64008 7.56916 3.02472 10.2629C1.40936 12.9566 0.41064 15.9746 0.100308 19.1001C-0.204118 22.2052 0.186464 25.3391 1.24372 28.2745C2.30097 31.2099 3.99838 33.8731 6.21279 36.071L19.382 49.265C19.613 49.4979 19.8878 49.6828 20.1906 49.8089C20.4934 49.9351 20.8181 50 21.1461 50C21.4742 50 21.7989 49.9351 22.1017 49.8089C22.4045 49.6828 22.6793 49.4979 22.9103 49.265L36.0298 36.071C38.2442 33.8731 39.9416 31.2099 40.9989 28.2745C42.0561 25.3391 42.4467 22.2052 42.1423 19.1001Z" fill="#2628DD"/>
<path fill-rule="evenodd" clip-rule="evenodd" d="M14.9093 11.9649C16.748 10.7363 18.9098 10.0805 21.1213 10.0805C24.0848 10.0871 26.925 11.2672 29.0205 13.3627C31.116 15.4582 32.2961 18.2984 32.3027 21.2619C32.3027 23.4734 31.6469 25.6352 30.4183 27.4739C29.1896 29.3127 27.4434 30.7458 25.4002 31.5921C23.3571 32.4384 21.1089 32.6598 18.9399 32.2284C16.7709 31.797 14.7786 30.732 13.2149 29.1683C11.6511 27.6046 10.5862 25.6122 10.1548 23.4433C9.72333 21.2743 9.94476 19.0261 10.7911 16.983C11.6373 14.9398 13.0705 13.1935 14.9093 11.9649Z" fill="white"/>
</svg>
